{
	"asset":{
		"generator":"Khronos glTF Blender I/O v3.6.27",
		"version":"2.0"
	},
	"extensionsUsed":[
		"KHR_materials_specular",
		"KHR_materials_ior"
	],
	"scene":0,
	"scenes":[
		{
			"name":"Scene",
			"nodes":[
				0,
				1,
				2,
				3,
				4,
				5
			]
		}
	],
	"nodes":[
		{
			"mesh":0,
			"name":"\u0426\u0438\u043b\u0456\u043d\u0434\u0440.002",
			"scale":[
				0.054034844040870667,
				0.3143270015716553,
				0.054034844040870667
			],
			"translation":[
				-0.008015871047973633,
				0.9065590500831604,
				-0.0052550435066223145
			]
		},
		{
			"mesh":1,
			"name":"\u0426\u0438\u043b\u0456\u043d\u0434\u0440.001",
			"rotation":[
				-0.00037916467408649623,
				-0.01113450713455677,
				0.0012204613303765655,
				0.9999372959136963
			],
			"scale":[
				0.2558155953884125,
				0.33686673641204834,
				0.2558155953884125
			],
			"translation":[
				-0.002980947494506836,
				0.9245491623878479,
				-0.0021079182624816895
			]
		},
		{
			"mesh":2,
			"name":"\u041a\u043e\u043b\u043e.008",
			"rotation":[
				-0.0004225752782076597,
				0.00016959749336820096,
				0.0012061132583767176,
				1
			],
			"scale":[
				0.24794943630695343,
				0.23762525618076324,
				0.2479494959115982
			],
			"translation":[
				-0.0009915828704833984,
				0.044891342520713806,
				-0.001667320728302002
			]
		},
		{
			"mesh":3,
			"name":"\u041a\u043e\u043b\u043e.007",
			"rotation":[
				-0.00042257533641532063,
				0.00016959749336820096,
				0.0012061132583767176,
				1
			],
			"scale":[
				0.2531622648239136,
				0.24262098968029022,
				0.25316229462623596
			],
			"translation":[
				-0.0009915828704833984,
				0.044891342520713806,
				-0.001667320728302002
			]
		},
		{
			"mesh":4,
			"name":"\u041a\u043e\u043b\u043e.006",
			"rotation":[
				-0.00042257533641532063,
				0.00016959749336820096,
				0.0012061132583767176,
				1
			],
			"scale":[
				0.2531622648239136,
				0.24262098968029022,
				0.25316229462623596
			],
			"translation":[
				-0.0009915828704833984,
				0.044891342520713806,
				-0.001667320728302002
			]
		},
		{
			"mesh":5,
			"name":"\u041a\u043e\u043b\u043e.002",
			"rotation":[
				-0.00042257533641532063,
				0.00016959749336820096,
				0.0012061132583767176,
				1
			],
			"scale":[
				0.24094964563846588,
				0.252957820892334,
				0.24094952642917633
			],
			"translation":[
				-0.0045926570892333984,
				1.548797607421875,
				-0.004040062427520752
			]
		}
	],
	"materials":[
		{
			"doubleSided":true,
			"name":"\u041c\u0430\u0442\u0435\u0440\u0456\u0430\u043b.003",
			"pbrMetallicRoughness":{}
		},
		{
			"doubleSided":true,
			"extensions":{
				"KHR_materials_specular":{
					"specularColorFactor":[
						0.4294584728416353,
						0.4294584728416353,
						0.4294584728416353
					]
				},
				"KHR_materials_ior":{
					"ior":1.4500000476837158
				}
			},
			"name":"\u041c\u0430\u0442\u0435\u0440\u0456\u0430\u043b.002",
			"pbrMetallicRoughness":{
				"metallicFactor":0.07086614519357681,
				"roughnessFactor":0
			}
		},
		{
			"doubleSided":true,
			"name":"\u041c\u0430\u0442\u0435\u0440\u0456\u0430\u043b.006",
			"pbrMetallicRoughness":{}
		},
		{
			"doubleSided":true,
			"name":"Gless.001",
			"pbrMetallicRoughness":{}
		},
		{
			"alphaMode":"BLEND",
			"doubleSided":true,
			"name":"Rained On Glass.001",
			"pbrMetallicRoughness":{}
		},
		{
			"doubleSided":true,
			"extensions":{
				"KHR_materials_specular":{
					"specularColorFactor":[
						2.371357614441398,
						2.371357614441398,
						2.371357614441398
					]
				},
				"KHR_materials_ior":{
					"ior":1.4500000476837158
				}
			},
			"name":"Main.002",
			"pbrMetallicRoughness":{
				"metallicFactor":0,
				"roughnessFactor":0.14173227548599243
			}
		}
	],
	"meshes":[
		{
			"name":"\u0426\u0438\u043b\u0456\u043d\u0434\u0440.002",
			"primitives":[
				{
					"attributes":{
						"POSITION":0,
						"NORMAL":1,
						"TEXCOORD_0":2
					},
					"indices":3,
					"material":0
				}
			]
		},
		{
			"name":"\u0426\u0438\u043b\u0456\u043d\u0434\u0440.001",
			"primitives":[
				{
					"attributes":{
						"POSITION":4,
						"NORMAL":5,
						"TEXCOORD_0":6
					},
					"indices":7,
					"material":1
				}
			]
		},
		{
			"name":"\u041a\u043e\u043b\u043e.007",
			"primitives":[
				{
					"attributes":{
						"POSITION":8,
						"NORMAL":9,
						"TEXCOORD_0":10
					},
					"indices":11,
					"material":2
				}
			]
		},
		{
			"name":"\u041a\u043e\u043b\u043e.006",
			"primitives":[
				{
					"attributes":{
						"POSITION":12,
						"NORMAL":13,
						"TEXCOORD_0":14
					},
					"indices":15,
					"material":3
				}
			]
		},
		{
			"name":"\u041a\u043e\u043b\u043e.003",
			"primitives":[
				{
					"attributes":{
						"POSITION":16,
						"NORMAL":17,
						"TEXCOORD_0":18,
						"TEXCOORD_1":19
					},
					"indices":20,
					"material":4
				}
			]
		},
		{
			"name":"\u041a\u043e\u043b\u043e.001",
			"primitives":[
				{
					"attributes":{
						"POSITION":21,
						"NORMAL":22,
						"TEXCOORD_0":23
					},
					"indices":24,
					"material":5
				}
			]
		}
	],
	"accessors":[
		{
			"bufferView":0,
			"componentType":5126,
			"count":192,
			"max":[
				1,
				1,
				1
			],
			"min":[
				-1,
				-1,
				-1
			],
			"type":"VEC3"
		},
		{
			"bufferView":1,
			"componentType":5126,
			"count":192,
			"type":"VEC3"
		},
		{
			"bufferView":2,
			"componentType":5126,
			"count":192,
			"type":"VEC2"
		},
		{
			"bufferView":3,
			"componentType":5123,
			"count":372,
			"type":"SCALAR"
		},
		{
			"bufferView":4,
			"componentType":5126,
			"count":128,
			"max":[
				1.0004699230194092,
				-0.32956331968307495,
				1.0001403093338013
			],
			"min":[
				-1.0008816719055176,
				-2.380375862121582,
				-1.0002630949020386
			],
			"type":"VEC3"
		},
		{
			"bufferView":5,
			"componentType":5126,
			"count":128,
			"type":"VEC3"
		},
		{
			"bufferView":6,
			"componentType":5126,
			"count":128,
			"type":"VEC2"
		},
		{
			"bufferView":7,
			"componentType":5123,
			"count":192,
			"type":"SCALAR"
		},
		{
			"bufferView":8,
			"componentType":5126,
			"count":480,
			"max":[
				1.0003278255462646,
				3.501552104949951,
				1.000114917755127
			],
			"min":[
				-0.999846875667572,
				0.06349608302116394,
				-0.9999462962150574
			],
			"type":"VEC3"
		},
		{
			"bufferView":9,
			"componentType":5126,
			"count":480,
			"type":"VEC3"
		},
		{
			"bufferView":10,
			"componentType":5126,
			"count":480,
			"type":"VEC2"
		},
		{
			"bufferView":11,
			"componentType":5123,
			"count":948,
			"type":"SCALAR"
		},
		{
			"bufferView":12,
			"componentType":5126,
			"count":1312,
			"max":[
				1,
				4.334486484527588,
				1
			],
			"min":[
				-1,
				0,
				-1
			],
			"type":"VEC3"
		},
		{
			"bufferView":13,
			"componentType":5126,
			"count":1312,
			"type":"VEC3"
		},
		{
			"bufferView":14,
			"componentType":5126,
			"count":1312,
			"type":"VEC2"
		},
		{
			"bufferView":15,
			"componentType":5123,
			"count":2010,
			"type":"SCALAR"
		},
		{
			"bufferView":16,
			"componentType":5126,
			"count":352,
			"max":[
				0.6578570008277893,
				5.417448997497559,
				0.6533992886543274
			],
			"min":[
				-0.657761812210083,
				4.28581428527832,
				-0.6621576547622681
			],
			"type":"VEC3"
		},
		{
			"bufferView":17,
			"componentType":5126,
			"count":352,
			"type":"VEC3"
		},
		{
			"bufferView":18,
			"componentType":5126,
			"count":352,
			"type":"VEC2"
		},
		{
			"bufferView":19,
			"componentType":5126,
			"count":352,
			"type":"VEC2"
		},
		{
			"bufferView":20,
			"componentType":5123,
			"count":666,
			"type":"SCALAR"
		},
		{
			"bufferView":21,
			"componentType":5126,
			"count":700,
			"max":[
				0.4458301365375519,
				0.4623126983642578,
				0.44583866000175476
			],
			"min":[
				-0.4458570182323456,
				-0.7708210945129395,
				-0.4458484351634979
			],
			"type":"VEC3"
		},
		{
			"bufferView":22,
			"componentType":5126,
			"count":700,
			"type":"VEC3"
		},
		{
			"bufferView":23,
			"componentType":5126,
			"count":700,
			"type":"VEC2"
		},
		{
			"bufferView":24,
			"componentType":5123,
			"count":1140,
			"type":"SCALAR"
		}
	],
	"bufferViews":[
		{
			"buffer":0,
			"byteLength":2304,
			"byteOffset":0,
			"target":34962
		},
		{
			"buffer":0,
			"byteLength":2304,
			"byteOffset":2304,
			"target":34962
		},
		{
			"buffer":0,
			"byteLength":1536,
			"byteOffset":4608,
			"target":34962
		},
		{
			"buffer":0,
			"byteLength":744,
			"byteOffset":6144,
			"target":34963
		},
		{
			"buffer":0,
			"byteLength":1536,
			"byteOffset":6888,
			"target":34962
		},
		{
			"buffer":0,
			"byteLength":1536,
			"byteOffset":8424,
			"target":34962
		},
		{
			"buffer":0,
			"byteLength":1024,
			"byteOffset":9960,
			"target":34962
		},
		{
			"buffer":0,
			"byteLength":384,
			"byteOffset":10984,
			"target":34963
		},
		{
			"buffer":0,
			"byteLength":5760,
			"byteOffset":11368,
			"target":34962
		},
		{
			"buffer":0,
			"byteLength":5760,
			"byteOffset":17128,
			"target":34962
		},
		{
			"buffer":0,
			"byteLength":3840,
			"byteOffset":22888,
			"target":34962
		},
		{
			"buffer":0,
			"byteLength":1896,
			"byteOffset":26728,
			"target":34963
		},
		{
			"buffer":0,
			"byteLength":15744,
			"byteOffset":28624,
			"target":34962
		},
		{
			"buffer":0,
			"byteLength":15744,
			"byteOffset":44368,
			"target":34962
		},
		{
			"buffer":0,
			"byteLength":10496,
			"byteOffset":60112,
			"target":34962
		},
		{
			"buffer":0,
			"byteLength":4020,
			"byteOffset":70608,
			"target":34963
		},
		{
			"buffer":0,
			"byteLength":4224,
			"byteOffset":74628,
			"target":34962
		},
		{
			"buffer":0,
			"byteLength":4224,
			"byteOffset":78852,
			"target":34962
		},
		{
			"buffer":0,
			"byteLength":2816,
			"byteOffset":83076,
			"target":34962
		},
		{
			"buffer":0,
			"byteLength":2816,
			"byteOffset":85892,
			"target":34962
		},
		{
			"buffer":0,
			"byteLength":1332,
			"byteOffset":88708,
			"target":34963
		},
		{
			"buffer":0,
			"byteLength":8400,
			"byteOffset":90040,
			"target":34962
		},
		{
			"buffer":0,
			"byteLength":8400,
			"byteOffset":98440,
			"target":34962
		},
		{
			"buffer":0,
			"byteLength":5600,
			"byteOffset":106840,
			"target":34962
		},
		{
			"buffer":0,
			"byteLength":2280,
			"byteOffset":112440,
			"target":34963
		}
	],
	"buffers":[
		{
			"byteLength":114720,
			"uri":"data:application/octet-stream;base64,"
		}
	]
}
